<?xml version="1.0" encoding="iso-8859-1"?>
<!-- Generator: Adobe Illustrator 19.0.0, SVG Export Plug-In . SVG Version: 6.00 Build 0)  -->
<svg version="1.1" id="Capa_1" xmlns="http://www.w3.org/2000/svg" xmlns:xlink="http://www.w3.org/1999/xlink" x="0px" y="0px"
	 viewBox="0 0 490 490" style="enable-background:new 0 0 490 490;" xml:space="preserve">
<g>
	<path d="M196.308,355.884c21.364,2.163,40.733,6.355,58.604,11.598c0.049,0.042,0.097,0.086,0.147,0.128l0.057-0.068
		c25.545,7.511,48.025,17.166,68.864,26.122c30.766,13.222,59.319,25.486,88.051,25.486c6.633,0,13.277-0.662,19.961-2.108
		c0.108,0.087,0.199,0.16,0.26,0.209l0.257-0.322c18.604-4.138,37.523-14.432,57.401-33.884l-21.418-21.897
		c-10.249,10.027-19.94,16.893-29.491,21.223c-22.017-21.171-52.893-59.423-43.333-90.039c12.863-41.161,57.21-66.079,57.629-66.318
		L490,205.927l-41.012-8.346c-1.544-0.329-148.448-28.333-199.752,116.67c-13.374-21.496-21.041-47.029-21.041-72.308
		c0-105.386,121.419-116.843,126.579-117.276l55.879-4.726l-50.479-24.335c-5.938-2.872-146.337-68.876-247.49,27.266
		c-82.345,78.239-82.201,197.36-79.229,239.409C10.522,379.503,0.86,396.296,0,397.853l26.773,14.867
		C27.162,412.017,67.036,342.662,196.308,355.884z M403.37,225.939c-14.404,13.985-29.42,33.219-36.928,57.27
		c-12.157,38.896,12.993,78.595,35.652,104.606c-19.419-2.272-40.369-11.272-66.029-22.299
		c-18.504-7.955-39.367-16.915-63.085-24.498C297.564,249.969,361.29,229.217,403.37,225.939z M133.774,145.068
		c51.586-49.013,117.83-47.144,162.685-37.796c-48.475,18.756-98.894,59.139-98.894,134.671c0,30.595,8.718,60.741,24.33,86.515
		c-7.281-1.235-14.774-2.273-22.505-3.056c-60.863-6.15-104.931,4.21-135.915,18.862C62.677,297.823,70.067,205.611,133.774,145.068
		z"/>
</g>
<g>
</g>
<g>
</g>
<g>
</g>
<g>
</g>
<g>
</g>
<g>
</g>
<g>
</g>
<g>
</g>
<g>
</g>
<g>
</g>
<g>
</g>
<g>
</g>
<g>
</g>
<g>
</g>
<g>
</g>
</svg>
